<svg width="3556" height="2267" viewBox="0 0 3556 2267" fill="none" xmlns="http://www.w3.org/2000/svg">
<path fill-rule="evenodd" clip-rule="evenodd" d="M1068.83 379.725C1082.83 378.169 1095.43 388.256 1096.99 402.253C1097.53 407.122 1098.26 412.564 1099.06 418.533C1103.37 450.792 1109.75 498.482 1099.92 554.836C1088.11 622.586 1053.46 701.784 969.383 788.176C871.723 888.524 844.782 990.088 861.952 1053.9C865.561 1067.32 871.092 1079.17 878.412 1089.28C878.751 1088.52 879.098 1087.77 879.454 1087.01C895.891 1052.07 929.244 1019.9 982.451 990.927C1031.84 964.034 1074.82 953.66 1109.22 957.686C1144.64 961.83 1171.54 981.812 1180.48 1012.73C1189 1042.19 1179.17 1074.72 1157.44 1101.79C1135.42 1129.19 1100.08 1152.89 1052.16 1167.52C1005.55 1181.75 963.19 1184.54 926.843 1176.55C944.814 1217.54 986.641 1253.07 1010.24 1271.31C1025.22 1282.88 1039.85 1292.23 1054.07 1299.64C1058.06 1252.91 1098.91 1209.19 1169.35 1169.17C1209.86 1146.16 1243.77 1132.93 1271.5 1128.42C1298.93 1123.96 1324.64 1127.53 1342.52 1144.35C1360.52 1161.27 1363.92 1185.28 1360.96 1206.5C1357.97 1227.98 1348.18 1250.65 1334.08 1271.63C1305.86 1313.63 1256.84 1354.11 1194.27 1368.73C1184.74 1370.96 1174.97 1372.57 1164.98 1373.5C1169.96 1376.1 1175.21 1378.63 1180.72 1381.07C1227.64 1401.94 1288.67 1415.09 1346.04 1416.99C1404.52 1418.93 1453.51 1409.03 1480.36 1389.54C1491.76 1381.26 1507.7 1383.79 1515.98 1395.19C1524.25 1406.58 1521.72 1422.53 1510.32 1430.8C1469.49 1460.45 1406.29 1470.02 1344.35 1467.96C1281.29 1465.87 1213.67 1451.55 1159.99 1427.67C1133.15 1415.74 1108.74 1400.95 1090.1 1383.2C1083.43 1376.84 1077.33 1369.94 1072.11 1362.5C1041.86 1352.56 1010.63 1336.06 979.055 1311.66C954.764 1292.89 898.566 1246.98 876.623 1188.39C872.1 1176.31 868.972 1163.54 867.875 1150.3C840.541 1130.11 821.863 1101.2 812.703 1067.15C789.059 979.271 828.361 859.955 932.834 752.607C1010.46 672.842 1039.79 602.759 1049.68 546.076C1058.04 498.127 1052.89 458.951 1048.65 426.657C1047.79 420.123 1046.97 413.871 1046.3 407.885C1044.75 393.888 1054.83 381.28 1068.83 379.725ZM1106.65 1319.17C1134.39 1325.33 1159.93 1324.38 1182.66 1319.07C1230.95 1307.79 1269.66 1276.06 1291.75 1243.19C1302.8 1226.74 1308.8 1211.3 1310.45 1199.46C1312.14 1187.37 1309.03 1182.86 1307.58 1181.5C1306.03 1180.03 1299.35 1175.56 1279.68 1178.76C1260.3 1181.91 1232.38 1192.03 1194.54 1213.52C1117.09 1257.51 1102.79 1291.95 1105 1311.61C1105.28 1314.07 1105.82 1316.59 1106.65 1319.17ZM920.849 1121.65C948.613 1132.42 987.344 1133.98 1037.27 1118.74C1077.44 1106.48 1103.29 1087.76 1117.67 1069.85C1132.33 1051.6 1134.09 1035.92 1131.49 1026.9C1129.3 1019.33 1122.36 1010.57 1103.3 1008.34C1083.23 1005.99 1051.1 1011.61 1006.84 1035.72C959.046 1061.74 935.767 1087.11 925.603 1108.72C923.568 1113.04 921.995 1117.35 920.849 1121.65Z" fill="#125127" stroke="black" stroke-width="27" stroke-linecap="round"/>
<path d="M791.464 170.336V322.024L925.238 327.007C941.804 327.624 956.272 338.395 961.615 354.087L981.896 413.656H1168.6L1041.06 190.489C1033.94 178.027 1020.69 170.336 1006.33 170.336H791.464Z" fill="#167F39"/>
<path d="M1059.36 222.5L1041.06 190.489C1033.94 178.027 1020.69 170.336 1006.33 170.336H976.1H944.6H910.504H791.464V322.024L831.784 323.526L851.944 324.277L862.024 324.652L872.104 325.028L912.424 326.529L925.238 327.007C941.804 327.624 956.272 338.395 961.615 354.087L981.896 413.656H1168.6L1141.29 365.867L1127.63 341.972M1082.6 264L1093.49 282.236L1100.32 294.183L1106.1 304.5" stroke="black" stroke-width="27" stroke-linecap="round"/>
<path d="M750.6 189H790.6C791.152 189 791.6 189.448 791.6 190V295C791.6 295.552 791.152 296 790.6 296H750.6C750.047 296 749.6 295.552 749.6 295V190C749.6 189.448 750.047 189 750.6 189Z" fill="#02511C"/>
<path d="M750.6 189H790.6C791.152 189 791.6 189.448 791.6 190V295C791.6 295.552 791.152 296 790.6 296H750.6C750.047 296 749.6 295.552 749.6 295V190C749.6 189.448 750.047 189 750.6 189Z" stroke="black" stroke-width="27"/>
<rect x="1019.6" y="414" width="110" height="42" rx="1" fill="#02511C" stroke="black" stroke-width="27"/>
<path d="M1520.6 111.322C1478.3 128.879 1358.18 334.168 1334.77 377.514C1334.65 377.74 1334.6 377.96 1334.61 378.217C1335.61 409.786 1366.31 431.797 1396.53 422.614L1543.4 377.987C1552.52 375.218 1561.85 373.24 1571.31 372.076L1978.92 321.888C2008.9 318.197 2039.24 318.639 2069.1 323.203L2753.6 427.82L2680.73 260.096C2639.97 166.274 2559.03 93.006 2459.93 67.6609C2383.14 48.0238 2286.36 27.9002 2174.6 18.8863C2134.3 15.6363 2092.06 13.8305 2048.1 14.0126C2034.02 14.0708 2019.76 14.3331 2005.34 14.8171C1985.19 15.4932 1965.96 16.3141 1947.6 17.2656C1935.92 17.8709 1924.59 18.529 1913.6 19.2363C1870.47 22.0121 1832.56 25.5457 1799.1 29.6171C1780.03 31.9376 1762.41 34.4327 1746.1 37.0618C1721.44 41.0372 1699.76 45.3186 1680.6 49.7652C1584.54 72.0537 1551.51 98.491 1520.6 111.322Z" fill="#07B541"/>
<path d="M1947.6 17.2656C1965.96 16.3141 1985.19 15.4932 2005.34 14.8171C2019.76 14.3331 2034.02 14.0708 2048.1 14.0126C2092.06 13.8305 2134.3 15.6363 2174.6 18.8863C2286.36 27.9002 2383.14 48.0238 2459.93 67.6609C2559.03 93.006 2639.97 166.274 2680.73 260.096L2753.6 427.82L2069.1 323.203C2039.24 318.639 2008.9 318.197 1978.92 321.888L1571.31 372.076C1561.85 373.24 1552.52 375.218 1543.4 377.987L1396.53 422.614C1366.31 431.797 1335.61 409.786 1334.61 378.217V378.217C1334.6 377.96 1334.65 377.739 1334.77 377.514C1358.2 334.198 1481.77 135.601 1520.6 111.322C1557.1 88.5 1613.6 65.3114 1680.6 49.7652C1699.76 45.3186 1721.44 41.0372 1746.1 37.0618C1762.41 34.4327 1780.03 31.9376 1799.1 29.6171M1901.6 20.3203L1837.6 25.8203" stroke="black" stroke-width="27" stroke-linecap="round"/>
<path d="M1298.38 460.176L1303.1 576.32L1837.38 430.008C1885.88 416.725 1936.78 414.704 1986.19 424.098L2784.1 575.82L2774.17 443.37C2771.5 407.736 2750.21 375.834 2717.71 360.993C2702.59 354.091 2686 346.873 2667.6 339.556C2633.9 326.154 2594.11 312.416 2546.1 299.656C2493.9 285.782 2431.98 273.066 2357.6 263.195C2283.29 253.334 2196.53 246.314 2094.6 243.819C2067.68 243.16 2039.69 242.817 2010.6 242.82C1975.46 242.825 1942.35 243.351 1911.1 244.342C1736.68 249.872 1620.37 269.857 1534.1 294.124C1462 314.404 1410.9 337.676 1364.4 358C1323.92 375.698 1296.59 416.027 1298.38 460.176Z" fill="#167F39"/>
<path d="M2667.6 339.556C2686 346.873 2702.59 354.091 2717.71 360.993C2750.21 375.834 2771.5 407.736 2774.17 443.37L2784.1 575.82L1986.19 424.098C1936.78 414.704 1885.88 416.725 1837.38 430.008L1303.1 576.32L1298.38 460.176C1296.59 416.027 1323.92 375.698 1364.4 358C1410.9 337.676 1462 314.404 1534.1 294.124C1620.37 269.857 1736.68 249.872 1911.1 244.342C1942.35 243.351 1975.46 242.825 2010.6 242.82C2039.69 242.817 2067.68 243.16 2094.6 243.819C2196.53 246.314 2283.29 253.334 2357.6 263.195M2608.1 320.82L2459.1 277.32" stroke="black" stroke-width="27" stroke-linecap="round"/>
<path d="M1317.36 524.82C1285.09 574.276 1305.59 624.185 1328.56 647.47C1340.59 659.661 1358.7 660.82 1375.82 660.82H2737.36C2803.19 669.987 2795.86 562.32 2759.36 524.82C2610.48 371.86 2312.6 355.32 1989.6 355.32C1921.73 355.32 1855.07 359.183 1791.6 366.047C1741.63 371.451 1693.63 378.716 1648.6 387.419C1625.8 391.826 1603.76 396.601 1582.6 401.69C1568.35 405.117 1554.51 408.687 1541.1 412.382C1526.03 416.537 1511.51 420.85 1497.6 425.299C1405.3 454.825 1339.87 490.31 1317.36 524.82Z" fill="#02511C"/>
<path d="M1541.1 412.382C1526.03 416.537 1511.51 420.85 1497.6 425.299C1405.3 454.825 1339.87 490.31 1317.36 524.82C1285.09 574.276 1305.59 624.185 1328.56 647.47C1340.59 659.661 1358.7 660.82 1375.82 660.82H2737.36C2803.19 669.987 2795.86 562.32 2759.36 524.82C2728.48 493.096 2691.19 467.239 2648.6 446.182C2614.48 429.313 2576.96 415.524 2536.6 404.265C2517.23 398.862 2497.21 394.041 2476.6 389.742M1648.6 387.419C1693.63 378.716 1741.63 371.451 1791.6 366.047C1855.07 359.183 1921.73 355.32 1989.6 355.32C2064.29 355.32 2137.63 356.205 2208.1 359.455M1617.1 392.82L1577.6 400.82M2308.69 366.047C2328.66 367.798 2348.31 369.821 2367.6 372.154" stroke="black" stroke-width="27" stroke-linecap="round"/>
<path d="M2739.6 677.957V908.005C2739.6 1057.14 2710.71 1204.86 2654.53 1343C2623.58 1419.1 2562.56 1479.39 2481.11 1490.12C2185.21 1529.09 1600.95 1492.03 1508.86 1462.1C1470.97 1449.78 1440.44 1405.64 1416.32 1347.32C1397.04 1300.71 1381.85 1245.03 1370.26 1189.32C1360.96 1144.63 1353.97 1099.91 1349.04 1059.82C1345.84 1033.76 1343.5 1009.66 1341.97 988.788C1340.24 965.496 1338.64 936.534 1337.65 904.82C1336.96 882.665 1336.56 859.167 1336.6 835.32C1336.81 734.001 1345.12 626.392 1373.53 588.789C1429.36 514.889 1533.13 421.048 2072.04 414.01C2387.8 409.886 2580.46 473.679 2674.63 531.926C2723.66 562.255 2739.6 620.303 2739.6 677.957Z" fill="#167F39"/>
<path d="M1341.97 988.788C1340.24 965.496 1338.64 936.534 1337.65 904.82C1336.96 882.665 1336.56 859.167 1336.6 835.32C1336.81 734.001 1345.12 626.392 1373.53 588.789C1429.36 514.889 1533.13 421.048 2072.04 414.01C2387.8 409.886 2580.46 473.679 2674.63 531.926C2723.66 562.255 2739.6 620.303 2739.6 677.957V767.32V880.82V954.82V1044.32M1346.71 1039.82C1347.43 1046.34 1348.2 1053.01 1349.04 1059.82C1351.41 1079.09 1354.25 1099.43 1357.6 1120.32C1361.22 1142.89 1365.43 1166.11 1370.26 1189.32C1373.29 1203.88 1376.56 1218.43 1380.09 1232.82M1404.01 1314.82C1399.95 1303.16 1396.11 1291.12 1392.47 1278.82C1388.04 1263.82 1383.91 1248.41 1380.09 1232.82M1404.01 1314.82C1407.91 1326.04 1412.01 1336.91 1416.32 1347.32C1440.44 1405.64 1470.97 1449.78 1508.86 1462.1C1525.08 1467.37 1556.59 1472.87 1599.1 1478.13M1404.01 1314.82L1380.09 1232.82M2231.6 1506.14C2191.41 1506.91 2150.12 1507.09 2108.6 1506.76C2081.12 1506.54 2053.54 1506.09 2026.1 1505.45C1934.54 1503.32 1844.62 1499 1765.6 1493.48M2388.1 1499.35C2415.4 1497.36 2441.37 1494.94 2465.6 1492.06C2466.89 1491.9 2468.17 1491.75 2469.45 1491.59C2555.49 1481.05 2620.56 1417.57 2655.28 1338.14L2672.85 1297.96L2706.22 1215.89M2732.1 1089.32L2719.6 1162.82M1719.6 1493.48L1648.6 1487.82" stroke="#1F2921" stroke-width="27" stroke-linecap="round"/>
<path d="M2614.6 983.895L2599.91 1132.63C2586.31 1270.34 2485.47 1385.1 2347.6 1396.9C2305.6 1400.5 2263.22 1402.99 2221.1 1404.56C2172.77 1406.36 2124.78 1406.93 2078.1 1406.56C1938.08 1405.43 1809.86 1395.72 1719.6 1384.58C1662.53 1377.54 1620.64 1369.94 1600.53 1363.57C1579.54 1356.93 1561.29 1338.74 1545.55 1313.32C1534.53 1295.54 1524.75 1274.21 1516.1 1250.82C1484.58 1165.54 1468.23 1052.78 1463.02 983.895C1456.36 896.698 1452.22 710.45 1489.03 663.024C1502.12 646.149 1518.54 627.52 1545.55 609.503C1560.32 599.648 1578.25 589.977 1600.53 580.876C1631.05 568.414 1669.72 557.021 1719.6 547.691C1747.43 542.485 1778.76 537.921 1814.1 534.173C1881.67 527.006 1963.92 522.82 2064.56 522.82C2327.14 522.821 2471.55 564.101 2547.04 606.003C2598.59 634.615 2614.6 695.063 2614.6 754.02V823.931V903.913V983.895Z" fill="#AAFFC7"/>
<path d="M1489.03 663.024C1452.22 710.45 1456.36 896.698 1463.02 983.895C1468.23 1052.78 1484.58 1165.54 1516.1 1250.82C1524.75 1274.21 1534.53 1295.54 1545.55 1313.32C1561.29 1338.74 1579.54 1356.93 1600.53 1363.57C1620.64 1369.94 1662.53 1377.54 1719.6 1384.58C1809.86 1395.72 1938.08 1405.43 2078.1 1406.56C2124.78 1406.93 2172.77 1406.36 2221.1 1404.56C2263.22 1402.99 2305.6 1400.5 2347.6 1396.9V1396.9C2485.47 1385.1 2586.31 1270.34 2599.91 1132.63L2614.6 983.895V903.913V823.931V754.02C2614.6 695.063 2598.59 634.615 2547.04 606.003C2471.55 564.101 2327.14 522.821 2064.56 522.82C1963.92 522.82 1881.67 527.006 1814.1 534.173M1600.53 580.876C1616.89 574.197 1669.6 549.82 1764.1 538.82M1554.6 601.32L1521.6 626.82" stroke="#0E110F" stroke-width="27" stroke-linecap="round"/>
<path d="M1885.8 950.82L1885.7 951.63V952.447V1091.46C1885.7 1122.48 1864.38 1149.43 1834.19 1156.57C1806.62 1163.08 1777.93 1163.27 1750.28 1157.11L1740.63 1154.95C1709.66 1148.05 1685.21 1124.31 1677.4 1093.56L1664.97 1044.66C1649.93 985.462 1644.98 924.153 1650.32 863.309L1656.17 796.629C1657.82 777.78 1673.61 763.32 1692.53 763.32H1844.79C1878.69 763.32 1904.96 792.972 1900.88 826.63L1885.8 950.82Z" fill="#02BF41" stroke="black" stroke-width="27"/>
<path d="M1765.87 1042.43V918.137H1786.53V1042.43H1765.87ZM1715.35 990.83V969.738H1837.05V990.83H1715.35Z" fill="#0E110F"/>
<path d="M2370.51 875.961H2231.08C2196.2 875.961 2169.66 907.239 2175.33 941.646L2182.24 983.592C2185.21 1001.61 2186.7 1019.83 2186.7 1038.09V1088.93C2186.7 1124.07 2211.97 1154.12 2246.58 1160.15C2268.76 1164.01 2291.42 1164.12 2313.63 1160.47L2324.82 1158.63C2360.76 1152.73 2390.57 1127.59 2402.44 1093.15L2403.59 1089.82C2420.99 1039.36 2426.75 985.62 2420.43 932.621L2418.79 918.83C2415.88 894.375 2395.14 875.961 2370.51 875.961Z" fill="#02BF41" stroke="black" stroke-width="27"/>
<path d="M2342.81 1006.18V1021.71H2249.59V1006.18H2342.81Z" fill="#0E110F"/>
<path d="M3555.77 2098C3555.77 2150.8 3541.37 2191.34 3512.57 2219.6C3484.3 2247.87 3444.57 2262 3393.37 2262H3316.57C3253.64 2262 3208.84 2251.07 3182.17 2229.2C3156.04 2207.34 3142.97 2169.47 3142.97 2115.6V1692.4H3383.77C3438.17 1692.4 3478.97 1706 3506.17 1733.2C3533.9 1760.4 3547.77 1798.8 3547.77 1848.4C3547.77 1877.2 3540.3 1901.74 3525.37 1922C3510.97 1942.27 3494.97 1956.67 3477.37 1965.2C3529.64 1989.74 3555.77 2034 3555.77 2098ZM3374.97 1914.8C3416.04 1914.8 3436.57 1894.27 3436.57 1853.2C3436.57 1812.14 3416.04 1791.6 3374.97 1791.6H3254.17V1914.8H3374.97ZM3444.57 2092.4C3444.57 2066.8 3440.04 2047.6 3430.97 2034.8C3421.9 2021.47 3405.64 2014.8 3382.17 2014.8H3254.17V2104.4C3254.17 2126.27 3259.5 2141.47 3270.17 2150C3281.37 2158.54 3299.5 2162.8 3324.57 2162.8H3382.17C3423.77 2162.8 3444.57 2139.34 3444.57 2092.4Z" fill="#1D2C21"/>
<path d="M3045.73 1950.8V1994C3045.73 2089.47 3027.59 2158.8 2991.33 2202C2955.59 2245.2 2897.99 2266.8 2818.53 2266.8C2739.06 2266.8 2681.46 2245.2 2645.73 2202C2610.53 2158.8 2592.93 2088.67 2592.93 1991.6V1950C2592.93 1861.47 2610.79 1795.6 2646.53 1752.4C2682.79 1709.2 2739.86 1687.6 2817.73 1687.6C2896.13 1687.6 2953.73 1709.47 2990.53 1753.2C3027.33 1796.93 3045.73 1862.8 3045.73 1950.8ZM2934.53 1991.6V1962C2934.53 1910.8 2928.13 1870 2915.33 1839.6C2900.39 1804.4 2868.39 1786.8 2819.33 1786.8C2769.73 1786.8 2737.46 1804.4 2722.53 1839.6C2710.26 1868.4 2704.13 1909.2 2704.13 1962V1991.6C2704.13 2060.4 2713.73 2106.8 2732.93 2130.8C2740.39 2140.93 2751.33 2149.73 2765.73 2157.2C2780.66 2164.13 2798.26 2167.6 2818.53 2167.6C2839.33 2167.6 2856.93 2164.13 2871.33 2157.2C2885.73 2150.27 2896.93 2141.73 2904.93 2131.6C2912.93 2121.47 2919.06 2108.13 2923.33 2091.6C2930.79 2065.47 2934.53 2032.13 2934.53 1991.6Z" fill="#1D2C21"/>
<path d="M2530.88 1950.8V1994C2530.88 2089.47 2512.75 2158.8 2476.48 2202C2440.75 2245.2 2383.15 2266.8 2303.68 2266.8C2224.22 2266.8 2166.62 2245.2 2130.88 2202C2095.68 2158.8 2078.08 2088.67 2078.08 1991.6V1950C2078.08 1861.47 2095.95 1795.6 2131.68 1752.4C2167.95 1709.2 2225.02 1687.6 2302.88 1687.6C2381.28 1687.6 2438.88 1709.47 2475.68 1753.2C2512.48 1796.93 2530.88 1862.8 2530.88 1950.8ZM2419.68 1991.6V1962C2419.68 1910.8 2413.28 1870 2400.48 1839.6C2385.55 1804.4 2353.55 1786.8 2304.48 1786.8C2254.88 1786.8 2222.62 1804.4 2207.68 1839.6C2195.42 1868.4 2189.28 1909.2 2189.28 1962V1991.6C2189.28 2060.4 2198.88 2106.8 2218.08 2130.8C2225.55 2140.93 2236.48 2149.73 2250.88 2157.2C2265.82 2164.13 2283.42 2167.6 2303.68 2167.6C2324.48 2167.6 2342.08 2164.13 2356.48 2157.2C2370.88 2150.27 2382.08 2141.73 2390.08 2131.6C2398.08 2121.47 2404.22 2108.13 2408.48 2091.6C2415.95 2065.47 2419.68 2032.13 2419.68 1991.6Z" fill="#1D2C21"/>
<path d="M2021.04 2262H1892.24L1781.04 2050.8H1701.04V2262H1589.84V1814.8C1589.84 1772.14 1599.71 1741.2 1619.44 1722C1639.18 1702.27 1672.24 1692.4 1718.64 1692.4H1813.04C1869.58 1692.4 1914.38 1709.74 1947.44 1744.4C1981.04 1778.54 1997.84 1822 1997.84 1874.8C1997.84 1913.2 1987.71 1946.54 1967.44 1974.8C1947.71 2002.54 1923.18 2021.74 1893.84 2032.4L2021.04 2262ZM1805.84 1958C1829.31 1958 1848.51 1950 1863.44 1934C1878.91 1917.47 1886.64 1897.2 1886.64 1873.2C1886.64 1848.67 1879.18 1828.94 1864.24 1814C1849.84 1799.07 1830.38 1791.6 1805.84 1791.6H1750.64C1717.58 1791.6 1701.04 1808.4 1701.04 1842V1958H1805.84Z" fill="#1D2C21"/>
<path d="M1465.39 2262H1354.19V2031.6H1145.39V2262H1034.19V1692.4H1145.39V1933.2H1354.19V1692.4H1465.39V2262Z" fill="#1D2C21"/>
<path d="M964.031 2262H848.031L816.031 2163.6H624.831L593.631 2262H477.631L660.031 1740.4C668.031 1722.27 676.831 1709.74 686.431 1702.8C696.564 1695.87 708.831 1692.4 723.231 1692.4C737.631 1692.4 749.098 1695.6 757.631 1702C766.698 1708.4 774.698 1721.2 781.631 1740.4L964.031 2262ZM790.431 2070L723.231 1844.4L652.831 2070H790.431Z" fill="#1D2C21"/>
<path d="M256.8 1960.4L452.8 2262H323.2L188.8 2046.8L111.2 2150.8V2262H0V1692.4H111.2V2010.8L326.4 1692.4H438.4L256.8 1960.4Z" fill="#1D2C21"/>
</svg>
