<svg width="2065" height="1521" viewBox="0 0 2065 1521" fill="none" xmlns="http://www.w3.org/2000/svg">
<path fill-rule="evenodd" clip-rule="evenodd" d="M332.83 379.725C346.827 378.169 359.435 388.256 360.99 402.253C361.531 407.122 362.259 412.564 363.057 418.533C367.37 450.792 373.746 498.482 363.92 554.836C352.106 622.586 317.461 701.784 233.383 788.176C135.723 888.524 108.782 990.088 125.952 1053.9C129.561 1067.32 135.092 1079.17 142.412 1089.28C142.751 1088.52 143.098 1087.77 143.454 1087.01C159.891 1052.07 193.244 1019.9 246.451 990.927C295.838 964.034 338.82 953.66 373.224 957.686C408.637 961.83 435.539 981.812 444.478 1012.73C452.996 1042.19 443.175 1074.72 421.436 1101.79C399.425 1129.19 364.081 1152.89 316.162 1167.52C269.554 1181.75 227.19 1184.54 190.843 1176.55C208.814 1217.54 250.641 1253.07 274.238 1271.31C289.218 1282.88 303.85 1292.23 318.074 1299.64C322.061 1252.91 362.906 1209.19 433.349 1169.17C473.862 1146.16 507.771 1132.93 535.498 1128.42C562.931 1123.96 588.638 1127.53 606.523 1144.35C624.518 1161.27 627.92 1185.28 624.962 1206.5C621.969 1227.98 612.177 1250.65 598.08 1271.63C569.861 1313.63 520.84 1354.11 458.266 1368.73C448.741 1370.96 438.968 1372.57 428.977 1373.5C433.961 1376.1 439.212 1378.63 444.716 1381.07C491.637 1401.94 552.668 1415.09 610.038 1416.99C668.52 1418.93 717.511 1409.03 744.36 1389.54C755.757 1381.26 771.703 1383.79 779.977 1395.19C788.251 1406.58 785.72 1422.53 774.324 1430.8C733.487 1460.45 670.286 1470.02 608.346 1467.96C545.294 1465.87 477.675 1451.55 423.993 1427.67C397.153 1415.74 372.743 1400.95 354.102 1383.2C347.429 1376.84 341.326 1369.94 336.106 1362.5C305.856 1352.56 274.631 1336.06 243.055 1311.66C218.764 1292.89 162.566 1246.98 140.623 1188.39C136.1 1176.31 132.972 1163.54 131.875 1150.3C104.541 1130.11 85.8634 1101.2 76.7031 1067.15C53.0587 979.271 92.3609 859.955 196.834 752.607C274.462 672.842 303.794 602.759 313.678 546.076C322.038 498.127 316.891 458.951 312.647 426.657C311.789 420.123 310.967 413.871 310.302 407.885C308.747 393.888 318.833 381.28 332.83 379.725ZM370.654 1319.17C398.391 1325.33 423.925 1324.38 446.661 1319.07C494.948 1307.79 533.664 1276.06 555.746 1243.19C566.8 1226.74 572.8 1211.3 574.45 1199.46C576.135 1187.37 573.033 1182.86 571.585 1181.5C570.027 1180.03 563.354 1175.56 543.68 1178.76C524.301 1181.91 496.376 1192.03 458.539 1213.52C381.095 1257.51 366.787 1291.95 369.001 1311.61C369.278 1314.07 369.819 1316.59 370.654 1319.17ZM184.849 1121.65C212.613 1132.42 251.344 1133.98 301.271 1118.74C341.437 1106.48 367.289 1087.76 381.671 1069.85C396.326 1051.6 398.094 1035.92 395.486 1026.9C393.299 1019.33 386.358 1010.57 367.296 1008.34C347.226 1005.99 315.104 1011.61 270.842 1035.72C223.046 1061.74 199.767 1087.11 189.603 1108.72C187.568 1113.04 185.995 1117.35 184.849 1121.65Z" fill="#125127" stroke="black" stroke-width="27" stroke-linecap="round"/>
<path d="M55.4635 170.336V322.024L189.238 327.007C205.804 327.624 220.272 338.395 225.615 354.087L245.896 413.656H432.6L305.061 190.489C297.939 178.027 284.686 170.336 270.332 170.336H55.4635Z" fill="#167F39"/>
<path d="M323.355 222.5L305.061 190.489C297.939 178.027 284.686 170.336 270.332 170.336H240.1H208.6H174.504H55.4635V322.024L95.7835 323.526L115.944 324.277L126.024 324.652L136.104 325.028L176.424 326.529L189.238 327.007C205.804 327.624 220.272 338.395 225.615 354.087L245.896 413.656H432.6L405.288 365.867L391.633 341.972M346.6 264L357.494 282.236L364.322 294.183L370.1 304.5" stroke="black" stroke-width="27" stroke-linecap="round"/>
<path d="M14.5996 189H54.5996C55.1519 189 55.5996 189.448 55.5996 190V295C55.5996 295.552 55.1519 296 54.5996 296H14.5996C14.0473 296 13.5996 295.552 13.5996 295V190C13.5996 189.448 14.0473 189 14.5996 189Z" fill="#02511C"/>
<path d="M14.5996 189H54.5996C55.1519 189 55.5996 189.448 55.5996 190V295C55.5996 295.552 55.1519 296 54.5996 296H14.5996C14.0473 296 13.5996 295.552 13.5996 295V190C13.5996 189.448 14.0473 189 14.5996 189Z" stroke="black" stroke-width="27"/>
<rect x="283.6" y="414" width="110" height="42" rx="1" fill="#02511C" stroke="black" stroke-width="27"/>
<path d="M784.6 111.322C742.302 128.879 622.179 334.168 598.767 377.514C598.645 377.74 598.604 377.96 598.612 378.217C599.614 409.786 630.313 431.797 660.534 422.614L807.401 377.987C816.516 375.218 825.854 373.24 835.309 372.076L1242.92 321.888C1272.9 318.197 1303.24 318.639 1333.1 323.203L2017.6 427.82L1944.73 260.096C1903.97 166.274 1823.03 93.006 1723.93 67.6609C1647.14 48.0238 1550.36 27.9002 1438.6 18.8863C1398.3 15.6363 1356.06 13.8305 1312.1 14.0126C1298.02 14.0708 1283.76 14.3331 1269.34 14.8171C1249.19 15.4932 1229.96 16.3141 1211.6 17.2656C1199.92 17.8709 1188.59 18.529 1177.6 19.2363C1134.47 22.0121 1096.56 25.5457 1063.1 29.6171C1044.03 31.9376 1026.41 34.4327 1010.1 37.0618C985.435 41.0372 963.763 45.3186 944.6 49.7652C848.542 72.0537 815.51 98.491 784.6 111.322Z" fill="#07B541"/>
<path d="M1211.6 17.2656C1229.96 16.3141 1249.19 15.4932 1269.34 14.8171C1283.76 14.3331 1298.02 14.0708 1312.1 14.0126C1356.06 13.8305 1398.3 15.6363 1438.6 18.8863C1550.36 27.9002 1647.14 48.0238 1723.93 67.6609C1823.03 93.006 1903.97 166.274 1944.73 260.096L2017.6 427.82L1333.1 323.203C1303.24 318.639 1272.9 318.197 1242.92 321.888L835.309 372.076C825.854 373.24 816.517 375.218 807.401 377.987L660.534 422.614C630.313 431.797 599.614 409.786 598.612 378.217V378.217C598.604 377.96 598.646 377.739 598.768 377.514C622.197 334.198 745.768 135.601 784.6 111.322C821.1 88.5 877.6 65.3114 944.6 49.7652C963.763 45.3186 985.435 41.0372 1010.1 37.0618C1026.41 34.4327 1044.03 31.9376 1063.1 29.6171M1165.6 20.3203L1101.6 25.8203" stroke="black" stroke-width="27" stroke-linecap="round"/>
<path d="M562.381 460.176L567.1 576.32L1101.38 430.008C1149.88 416.725 1200.78 414.704 1250.19 424.098L2048.1 575.82L2038.17 443.37C2035.5 407.736 2014.21 375.834 1981.71 360.993C1966.59 354.091 1950 346.873 1931.6 339.556C1897.9 326.154 1858.11 312.416 1810.1 299.656C1757.9 285.782 1695.98 273.066 1621.6 263.195C1547.29 253.334 1460.53 246.314 1358.6 243.819C1331.68 243.16 1303.69 242.817 1274.6 242.82C1239.46 242.825 1206.35 243.351 1175.1 244.342C1000.68 249.872 884.367 269.857 798.1 294.124C726.005 314.404 674.897 337.676 628.405 358C587.919 375.698 560.588 416.027 562.381 460.176Z" fill="#167F39"/>
<path d="M1931.6 339.556C1950 346.873 1966.59 354.091 1981.71 360.993C2014.21 375.834 2035.5 407.736 2038.17 443.37L2048.1 575.82L1250.19 424.098C1200.78 414.704 1149.88 416.725 1101.38 430.008L567.1 576.32L562.381 460.176C560.588 416.027 587.919 375.698 628.405 358C674.897 337.676 726.005 314.404 798.1 294.124C884.367 269.857 1000.68 249.872 1175.1 244.342C1206.35 243.351 1239.46 242.825 1274.6 242.82C1303.69 242.817 1331.68 243.16 1358.6 243.819C1460.53 246.314 1547.29 253.334 1621.6 263.195M1872.1 320.82L1723.1 277.32" stroke="black" stroke-width="27" stroke-linecap="round"/>
<path d="M581.359 524.82C549.092 574.276 569.592 624.185 592.562 647.47C604.588 659.661 622.7 660.82 639.824 660.82H2001.36C2067.19 669.987 2059.86 562.32 2023.36 524.82C1874.48 371.86 1576.6 355.32 1253.6 355.32C1185.73 355.32 1119.07 359.183 1055.6 366.047C1005.63 371.451 957.635 378.716 912.6 387.419C889.8 391.826 867.758 396.601 846.6 401.69C832.353 405.117 818.506 408.687 805.1 412.382C790.026 416.537 775.508 420.85 761.6 425.299C669.297 454.825 603.875 490.31 581.359 524.82Z" fill="#02511C"/>
<path d="M805.1 412.382C790.026 416.537 775.508 420.85 761.6 425.299C669.297 454.825 603.875 490.31 581.359 524.82C549.092 574.276 569.592 624.185 592.562 647.47C604.588 659.661 622.7 660.82 639.824 660.82H2001.36C2067.19 669.987 2059.86 562.32 2023.36 524.82C1992.48 493.096 1955.19 467.239 1912.6 446.182C1878.48 429.313 1840.96 415.524 1800.6 404.265C1781.23 398.862 1761.21 394.041 1740.6 389.742M912.6 387.419C957.635 378.716 1005.63 371.451 1055.6 366.047C1119.07 359.183 1185.73 355.32 1253.6 355.32C1328.29 355.32 1401.63 356.205 1472.1 359.455M881.1 392.82L841.6 400.82M1572.69 366.047C1592.66 367.798 1612.31 369.821 1631.6 372.154" stroke="black" stroke-width="27" stroke-linecap="round"/>
<path d="M2003.6 677.957V908.005C2003.6 1057.14 1974.71 1204.86 1918.53 1343C1887.58 1419.1 1826.56 1479.39 1745.11 1490.12C1449.21 1529.09 864.952 1492.03 772.859 1462.1C734.967 1449.78 704.444 1405.64 680.323 1347.32C661.042 1300.71 645.852 1245.03 634.257 1189.32C624.956 1144.63 617.969 1099.91 613.041 1059.82C609.837 1033.76 607.504 1009.66 605.97 988.788C604.236 965.496 602.643 936.534 601.65 904.82C600.956 882.665 600.555 859.167 600.603 835.32C600.808 734.001 609.118 626.392 637.527 588.789C693.359 514.889 797.135 421.048 1336.04 414.01C1651.8 409.886 1844.46 473.679 1938.63 531.926C1987.66 562.255 2003.6 620.303 2003.6 677.957Z" fill="#167F39"/>
<path d="M605.97 988.788C604.236 965.496 602.643 936.534 601.65 904.82C600.956 882.665 600.555 859.167 600.603 835.32C600.808 734.001 609.118 626.392 637.527 588.789C693.359 514.889 797.135 421.048 1336.04 414.01C1651.8 409.886 1844.46 473.679 1938.63 531.926C1987.66 562.255 2003.6 620.303 2003.6 677.957V767.32V880.82V954.82V1044.32M610.707 1039.82C611.426 1046.34 612.204 1053.01 613.041 1059.82C615.41 1079.09 618.254 1099.43 621.602 1120.32C625.22 1142.89 629.427 1166.11 634.257 1189.32C637.286 1203.88 640.561 1218.43 644.09 1232.82M668.007 1314.82C663.949 1303.16 660.105 1291.12 656.47 1278.82C652.038 1263.82 647.915 1248.41 644.09 1232.82M668.007 1314.82C671.911 1326.04 676.015 1336.91 680.323 1347.32C704.444 1405.64 734.967 1449.78 772.859 1462.1C789.085 1467.37 820.588 1472.87 863.1 1478.13M668.007 1314.82L644.09 1232.82M1495.6 1506.14C1455.41 1506.91 1414.12 1507.09 1372.6 1506.76C1345.12 1506.54 1317.54 1506.09 1290.1 1505.45C1198.54 1503.32 1108.62 1499 1029.6 1493.48M1652.1 1499.35C1679.4 1497.36 1705.37 1494.94 1729.6 1492.06C1730.89 1491.9 1732.17 1491.75 1733.45 1491.59C1819.49 1481.05 1884.56 1417.57 1919.28 1338.14L1936.85 1297.96L1970.22 1215.89M1996.1 1089.32L1983.6 1162.82M983.6 1493.48L912.6 1487.82" stroke="#1F2921" stroke-width="27" stroke-linecap="round"/>
<path d="M1878.6 983.895L1863.91 1132.63C1850.31 1270.34 1749.47 1385.1 1611.6 1396.9C1569.6 1400.5 1527.22 1402.99 1485.1 1404.56C1436.77 1406.36 1388.78 1406.93 1342.1 1406.56C1202.08 1405.43 1073.86 1395.72 983.6 1384.58C926.535 1377.54 884.643 1369.94 864.533 1363.57C843.54 1356.93 825.292 1338.74 809.547 1313.32C798.535 1295.54 788.746 1274.21 780.1 1250.82C748.577 1165.54 732.225 1052.78 727.024 983.895C720.357 896.698 716.223 710.45 753.026 663.024C766.121 646.149 782.545 627.52 809.547 609.503C824.316 599.648 842.249 589.977 864.533 580.876C895.048 568.414 933.721 557.021 983.6 547.691C1011.43 542.485 1042.76 537.921 1078.1 534.173C1145.67 527.006 1227.92 522.82 1328.56 522.82C1591.14 522.821 1735.55 564.101 1811.04 606.003C1862.59 634.615 1878.6 695.063 1878.6 754.02V823.931V903.913V983.895Z" fill="#AAFFC7"/>
<path d="M753.026 663.024C716.223 710.45 720.357 896.698 727.024 983.895C732.225 1052.78 748.577 1165.54 780.1 1250.82C788.746 1274.21 798.535 1295.54 809.547 1313.32C825.292 1338.74 843.54 1356.93 864.533 1363.57C884.643 1369.94 926.535 1377.54 983.6 1384.58C1073.86 1395.72 1202.08 1405.43 1342.1 1406.56C1388.78 1406.93 1436.77 1406.36 1485.1 1404.56C1527.22 1402.99 1569.6 1400.5 1611.6 1396.9V1396.9C1749.47 1385.1 1850.31 1270.34 1863.91 1132.63L1878.6 983.895V903.913V823.931V754.02C1878.6 695.063 1862.59 634.615 1811.04 606.003C1735.55 564.101 1591.14 522.821 1328.56 522.82C1227.92 522.82 1145.67 527.006 1078.1 534.173M864.533 580.876C880.888 574.197 933.6 549.82 1028.1 538.82M818.6 601.32L785.6 626.82" stroke="#0E110F" stroke-width="27" stroke-linecap="round"/>
<path d="M1149.8 950.82L1149.7 951.63V952.447V1091.46C1149.7 1122.48 1128.38 1149.43 1098.19 1156.57C1070.62 1163.08 1041.93 1163.27 1014.28 1157.11L1004.63 1154.95C973.659 1148.05 949.208 1124.31 941.395 1093.56L928.97 1044.66C913.93 985.462 908.976 924.153 914.316 863.309L920.169 796.629C921.824 777.78 937.608 763.32 956.529 763.32H1108.79C1142.69 763.32 1168.96 792.972 1164.88 826.63L1149.8 950.82Z" fill="#02BF41" stroke="black" stroke-width="27"/>
<path d="M1029.87 1042.43V918.137H1050.53V1042.43H1029.87ZM979.348 990.83V969.738H1101.05V990.83H979.348Z" fill="#0E110F"/>
<path d="M1634.51 875.961H1495.08C1460.2 875.961 1433.66 907.239 1439.33 941.646L1446.24 983.592C1449.21 1001.61 1450.7 1019.83 1450.7 1038.09V1088.93C1450.7 1124.07 1475.97 1154.12 1510.58 1160.15C1532.76 1164.01 1555.42 1164.12 1577.63 1160.47L1588.82 1158.63C1624.76 1152.73 1654.57 1127.59 1666.44 1093.15L1667.59 1089.82C1684.99 1039.36 1690.75 985.62 1684.43 932.621L1682.79 918.83C1679.88 894.375 1659.14 875.961 1634.51 875.961Z" fill="#02BF41" stroke="black" stroke-width="27"/>
<path d="M1606.81 1006.18V1021.71H1513.59V1006.18H1606.81Z" fill="#0E110F"/>
</svg>
